@startuml DocumentModel

hide empty members

class "MedComConditionListBundle" as document
class "MedComConditionListComposition" as composition
class "MedComConditionListOrganization" as organization <<MedComCoreOrganization>>
class "MedComDocumentPractitioner" as practitioner <<MedComCorePractitioner>>
class "MedComDocumentPatient" as patient <<DkCorePatient>>
class "MedComConditionListCondition" as condition <<DkCoreCondition>>
   
document -- composition : "entry"
composition -- organization : "author"
composition -- practitioner : "author"
composition -- patient : "subject"
composition -- condition : "section.entry"
condition -- patient : "subject"


@enduml